# Blender v2.79 (sub 0) OBJ File: ''
# www.blender.org
mtllib 006.mtl
o Icosphere.007
v 0.003259 0.325274 0.060934
v 0.450469 0.399947 0.369945
v -0.167557 0.399947 0.560929
v 0.764104 0.601664 0.586659
v 0.897682 0.562406 0.060934
v -0.549525 0.399948 0.060934
v -0.167557 0.399948 -0.439061
v 0.450469 0.399948 -0.248077
v 1.003259 0.825274 0.369947
v -0.287352 0.601664 0.911583
v 0.279655 0.562405 0.869945
v 0.003259 0.825274 1.060934
v -0.937196 0.601667 0.060934
v -0.720345 0.562406 0.560931
v -0.996742 0.825274 0.369947
v -0.287352 0.601665 -0.789715
v -0.720345 0.562407 -0.439063
v -0.614775 0.825275 -0.748083
v 0.764104 0.601665 -0.464791
v 0.279655 0.562406 -0.748077
v 0.621293 0.825275 -0.748083
v 0.621293 0.825274 0.869951
v -0.614775 0.825274 0.869951
v -0.996742 0.825274 -0.248078
v 0.003259 0.825275 -0.939066
v 1.003259 0.825274 -0.248078
v 0.293871 1.048885 0.911583
v 0.726863 1.088143 0.560931
v 0.174075 1.250602 0.560930
v -0.757586 1.048885 0.586659
v -0.273137 1.088143 0.869945
v -0.443951 1.250602 0.369945
v -0.757586 1.048885 -0.464791
v -0.891164 1.088143 0.060934
v -0.443951 1.250602 -0.248077
v 0.293871 1.048885 -0.789715
v -0.273137 1.088144 -0.748077
v 0.174075 1.250602 -0.439061
v 0.943713 1.048882 0.060934
v 0.726863 1.088143 -0.439063
v 0.556043 1.250601 0.060934
v 0.003259 1.325275 0.060934
vn 0.0508 -0.9851 0.1645
vn 0.4423 -0.8790 0.1780
vn -0.1332 -0.9859 0.1017
vn -0.1332 -0.9859 -0.1017
vn 0.0508 -0.9851 -0.1645
vn 0.7701 -0.5912 0.2398
vn 0.0204 -0.5735 0.8189
vn -0.7563 -0.5906 0.2816
vn -0.4800 -0.5804 -0.6578
vn 0.4459 -0.5795 -0.6822
vn 0.7688 -0.2531 0.5873
vn -0.2861 -0.2466 0.9259
vn -0.9663 -0.2573 0.0000
vn -0.2861 -0.2466 -0.9259
vn 0.7688 -0.2531 -0.5873
vn 0.2566 0.8731 0.4146
vn -0.2960 0.8741 0.3851
vn -0.4423 0.8790 -0.1780
vn 0.0241 0.8701 -0.4923
vn 0.4577 0.8796 -0.1294
vn 0.1332 0.9859 -0.1017
vn 0.2756 0.9379 -0.2106
vn 0.2566 0.8731 -0.4146
vn -0.0508 0.9851 -0.1645
vn -0.1049 0.9347 -0.3396
vn -0.2960 0.8741 -0.3851
vn -0.1647 0.9863 0.0000
vn -0.3414 0.9399 0.0000
vn -0.4423 0.8790 0.1780
vn -0.0508 0.9851 0.1645
vn -0.1049 0.9347 0.3396
vn 0.0241 0.8701 0.4923
vn 0.1332 0.9859 0.1017
vn 0.2756 0.9379 0.2106
vn 0.4577 0.8796 0.1294
vn 0.7563 0.5906 -0.2816
vn 0.7392 0.3670 -0.5647
vn 0.4800 0.5804 -0.6578
vn -0.0204 0.5735 -0.8189
vn -0.2756 0.3583 -0.8920
vn -0.4459 0.5795 -0.6822
vn -0.7701 0.5912 -0.2398
vn -0.9280 0.3727 0.0000
vn -0.7701 0.5912 0.2398
vn -0.4459 0.5795 0.6822
vn -0.2756 0.3583 0.8920
vn -0.0204 0.5735 0.8189
vn 0.4800 0.5804 0.6578
vn 0.7392 0.3670 0.5647
vn 0.7563 0.5906 0.2816
vn 0.2861 0.2466 -0.9259
vn 0.2756 -0.3583 -0.8920
vn 0.0204 -0.5735 -0.8189
vn -0.7688 0.2531 -0.5873
vn -0.7392 -0.3670 -0.5647
vn -0.7563 -0.5906 -0.2816
vn -0.7688 0.2531 0.5873
vn -0.7392 -0.3670 0.5647
vn -0.4800 -0.5804 0.6578
vn 0.2861 0.2466 0.9259
vn 0.2756 -0.3583 0.8920
vn 0.4459 -0.5795 0.6822
vn 0.9663 0.2573 0.0000
vn 0.9280 -0.3727 -0.0000
vn 0.7701 -0.5912 -0.2398
vn 0.2960 -0.8741 -0.3851
vn 0.1049 -0.9347 -0.3396
vn -0.0241 -0.8701 -0.4923
vn -0.2566 -0.8731 -0.4146
vn -0.2756 -0.9379 -0.2106
vn -0.4577 -0.8796 -0.1294
vn -0.4577 -0.8796 0.1294
vn -0.2756 -0.9379 0.2106
vn -0.2566 -0.8731 0.4146
vn 0.4423 -0.8790 -0.1780
vn 0.3414 -0.9399 -0.0000
vn 0.1647 -0.9863 -0.0000
vn -0.0241 -0.8701 0.4923
vn 0.1049 -0.9347 0.3396
vn 0.2960 -0.8741 0.3851
usemtl None.020
s 1
f 1//1 2//1 3//1
f 4//2 2//2 5//2
f 1//3 3//3 6//3
f 1//4 6//4 7//4
f 1//5 7//5 8//5
f 4//6 5//6 9//6
f 10//7 11//7 12//7
f 13//8 14//8 15//8
f 16//9 17//9 18//9
f 19//10 20//10 21//10
f 4//11 9//11 22//11
f 10//12 12//12 23//12
f 13//13 15//13 24//13
f 16//14 18//14 25//14
f 19//15 21//15 26//15
f 27//16 28//16 29//16
f 30//17 31//17 32//17
f 33//18 34//18 35//18
f 36//19 37//19 38//19
f 39//20 40//20 41//20
f 41//21 38//21 42//21
f 41//22 40//22 38//22
f 40//23 36//23 38//23
f 38//24 35//24 42//24
f 38//25 37//25 35//25
f 37//26 33//26 35//26
f 35//27 32//27 42//27
f 35//28 34//28 32//28
f 34//29 30//29 32//29
f 32//30 29//30 42//30
f 32//31 31//31 29//31
f 31//32 27//32 29//32
f 29//33 41//33 42//33
f 29//34 28//34 41//34
f 28//35 39//35 41//35
f 26//36 40//36 39//36
f 26//37 21//37 40//37
f 21//38 36//38 40//38
f 25//39 37//39 36//39
f 25//40 18//40 37//40
f 18//41 33//41 37//41
f 24//42 34//42 33//42
f 24//43 15//43 34//43
f 15//44 30//44 34//44
f 23//45 31//45 30//45
f 23//46 12//46 31//46
f 12//47 27//47 31//47
f 22//48 28//48 27//48
f 22//49 9//49 28//49
f 9//50 39//50 28//50
f 21//51 25//51 36//51
f 21//52 20//52 25//52
f 20//53 16//53 25//53
f 18//54 24//54 33//54
f 18//55 17//55 24//55
f 17//56 13//56 24//56
f 15//57 23//57 30//57
f 15//58 14//58 23//58
f 14//59 10//59 23//59
f 12//60 22//60 27//60
f 12//61 11//61 22//61
f 11//62 4//62 22//62
f 9//63 26//63 39//63
f 9//64 5//64 26//64
f 5//65 19//65 26//65
f 8//66 20//66 19//66
f 8//67 7//67 20//67
f 7//68 16//68 20//68
f 7//69 17//69 16//69
f 7//70 6//70 17//70
f 6//71 13//71 17//71
f 6//72 14//72 13//72
f 6//73 3//73 14//73
f 3//74 10//74 14//74
f 5//75 8//75 19//75
f 5//76 2//76 8//76
f 2//77 1//77 8//77
f 3//78 11//78 10//78
f 3//79 2//79 11//79
f 2//80 4//80 11//80
