# Blender v2.79 (sub 0) OBJ File: ''
# www.blender.org
mtllib 006.mtl
o Icosphere
v 0.135996 1.149489 2.221187
v 1.583210 1.702269 3.272637
v -0.416780 1.702269 3.922485
v -1.652857 1.702273 2.221187
v -0.416780 1.702269 0.519888
v 1.583210 1.702269 1.169736
v 0.688772 2.596709 3.922485
v -1.311219 2.596709 3.272637
v -1.311219 2.596709 1.169736
v 0.688772 2.596709 0.519888
v 1.924848 2.596704 2.221187
v 0.135996 3.149489 2.221187
v -0.188915 1.298835 3.221177
v 0.986641 1.298835 2.839210
v 0.661733 1.623751 3.839210
v 1.837291 1.623753 2.221187
v 0.986641 1.298835 1.603164
v -0.915464 1.298837 2.221187
v -1.240383 1.623753 3.221181
v -0.188915 1.298835 1.221196
v -1.240383 1.623753 1.221193
v 0.661733 1.623751 0.603164
v 2.038111 2.149489 2.839212
v 2.038111 2.149489 1.603162
v 0.135996 2.149489 4.221187
v 1.311567 2.149489 3.839220
v -1.766120 2.149489 2.839212
v -1.039576 2.149489 3.839220
v -1.039576 2.149489 0.603153
v -1.766120 2.149489 1.603162
v 1.311567 2.149489 0.603153
v 0.135996 2.149489 0.221187
v 1.512374 2.675225 3.221181
v -0.389742 2.675227 3.839210
v -1.565300 2.675225 2.221187
v -0.389742 2.675227 0.603164
v 1.512374 2.675225 1.221193
v 0.460907 3.000143 3.221177
v 1.187455 3.000141 2.221187
v -0.714650 3.000143 2.839210
v -0.714650 3.000143 1.603164
v 0.460907 3.000143 1.221196
vn 0.0534 -0.9849 0.1645
vn 0.4604 -0.8701 0.1762
vn -0.1399 -0.9849 0.1016
vn -0.1399 -0.9849 -0.1016
vn 0.0534 -0.9849 -0.1645
vn 0.7855 -0.5735 0.2326
vn 0.0215 -0.5735 0.8189
vn -0.7722 -0.5735 0.2735
vn -0.4987 -0.5735 -0.6499
vn 0.4640 -0.5735 -0.6751
vn 0.7843 -0.2455 0.5698
vn -0.2996 -0.2455 0.9219
vn -0.9694 -0.2455 0.0000
vn -0.2996 -0.2455 -0.9219
vn 0.7843 -0.2455 -0.5698
vn 0.2689 0.8701 0.4132
vn -0.3099 0.8701 0.3834
vn -0.4604 0.8701 -0.1762
vn 0.0253 0.8701 -0.4923
vn 0.4760 0.8701 -0.1280
vn 0.1399 0.9849 -0.1016
vn 0.2887 0.9342 -0.2097
vn 0.2689 0.8701 -0.4132
vn -0.0534 0.9849 -0.1645
vn -0.1103 0.9342 -0.3394
vn -0.3099 0.8701 -0.3834
vn -0.1729 0.9849 0.0000
vn -0.3568 0.9342 0.0000
vn -0.4604 0.8701 0.1762
vn -0.0534 0.9849 0.1645
vn -0.1103 0.9342 0.3394
vn 0.0253 0.8701 0.4923
vn 0.1399 0.9849 0.1016
vn 0.2887 0.9342 0.2097
vn 0.4760 0.8701 0.1280
vn 0.7722 0.5735 -0.2735
vn 0.7558 0.3568 -0.5491
vn 0.4987 0.5735 -0.6499
vn -0.0215 0.5735 -0.8189
vn -0.2887 0.3568 -0.8884
vn -0.4640 0.5735 -0.6751
vn -0.7855 0.5735 -0.2326
vn -0.9342 0.3568 0.0000
vn -0.7855 0.5735 0.2326
vn -0.4640 0.5735 0.6751
vn -0.2887 0.3568 0.8884
vn -0.0215 0.5735 0.8189
vn 0.4987 0.5735 0.6499
vn 0.7558 0.3568 0.5491
vn 0.7722 0.5735 0.2735
vn 0.2996 0.2455 -0.9219
vn 0.2887 -0.3568 -0.8884
vn 0.0215 -0.5735 -0.8189
vn -0.7843 0.2455 -0.5698
vn -0.7558 -0.3568 -0.5491
vn -0.7722 -0.5735 -0.2735
vn -0.7843 0.2455 0.5698
vn -0.7558 -0.3568 0.5491
vn -0.4987 -0.5735 0.6499
vn 0.2996 0.2455 0.9219
vn 0.2887 -0.3568 0.8884
vn 0.4640 -0.5735 0.6751
vn 0.9694 0.2455 0.0000
vn 0.9342 -0.3568 0.0000
vn 0.7855 -0.5735 -0.2326
vn 0.3099 -0.8701 -0.3834
vn 0.1103 -0.9342 -0.3394
vn -0.0253 -0.8701 -0.4923
vn -0.2689 -0.8701 -0.4132
vn -0.2887 -0.9342 -0.2097
vn -0.4760 -0.8701 -0.1280
vn -0.4760 -0.8701 0.1280
vn -0.2887 -0.9342 0.2097
vn -0.2689 -0.8701 0.4132
vn 0.4604 -0.8701 -0.1762
vn 0.3568 -0.9342 0.0000
vn 0.1729 -0.9849 0.0000
vn -0.0253 -0.8701 0.4923
vn 0.1103 -0.9342 0.3394
vn 0.3099 -0.8701 0.3834
usemtl None
s off
f 1//1 14//1 13//1
f 2//2 14//2 16//2
f 1//3 13//3 18//3
f 1//4 18//4 20//4
f 1//5 20//5 17//5
f 2//6 16//6 23//6
f 3//7 15//7 25//7
f 4//8 19//8 27//8
f 5//9 21//9 29//9
f 6//10 22//10 31//10
f 2//11 23//11 26//11
f 3//12 25//12 28//12
f 4//13 27//13 30//13
f 5//14 29//14 32//14
f 6//15 31//15 24//15
f 7//16 33//16 38//16
f 8//17 34//17 40//17
f 9//18 35//18 41//18
f 10//19 36//19 42//19
f 11//20 37//20 39//20
f 39//21 42//21 12//21
f 39//22 37//22 42//22
f 37//23 10//23 42//23
f 42//24 41//24 12//24
f 42//25 36//25 41//25
f 36//26 9//26 41//26
f 41//27 40//27 12//27
f 41//28 35//28 40//28
f 35//29 8//29 40//29
f 40//30 38//30 12//30
f 40//31 34//31 38//31
f 34//32 7//32 38//32
f 38//33 39//33 12//33
f 38//34 33//34 39//34
f 33//35 11//35 39//35
f 24//36 37//36 11//36
f 24//37 31//37 37//37
f 31//38 10//38 37//38
f 32//39 36//39 10//39
f 32//40 29//40 36//40
f 29//41 9//41 36//41
f 30//42 35//42 9//42
f 30//43 27//43 35//43
f 27//44 8//44 35//44
f 28//45 34//45 8//45
f 28//46 25//46 34//46
f 25//47 7//47 34//47
f 26//48 33//48 7//48
f 26//49 23//49 33//49
f 23//50 11//50 33//50
f 31//51 32//51 10//51
f 31//52 22//52 32//52
f 22//53 5//53 32//53
f 29//54 30//54 9//54
f 29//55 21//55 30//55
f 21//56 4//56 30//56
f 27//57 28//57 8//57
f 27//58 19//58 28//58
f 19//59 3//59 28//59
f 25//60 26//60 7//60
f 25//61 15//61 26//61
f 15//62 2//62 26//62
f 23//63 24//63 11//63
f 23//64 16//64 24//64
f 16//65 6//65 24//65
f 17//66 22//66 6//66
f 17//67 20//67 22//67
f 20//68 5//68 22//68
f 20//69 21//69 5//69
f 20//70 18//70 21//70
f 18//71 4//71 21//71
f 18//72 19//72 4//72
f 18//73 13//73 19//73
f 13//74 3//74 19//74
f 16//75 17//75 6//75
f 16//76 14//76 17//76
f 14//77 1//77 17//77
f 13//78 15//78 3//78
f 13//79 14//79 15//79
f 14//80 2//80 15//80
